<svg width="419" height="95" viewBox="0 0 419 95" fill="none" xmlns="http://www.w3.org/2000/svg">
<g clip-path="url(#clip0)">
<path d="M140.797 71.6052C137.459 71.6522 134.155 70.9298 131.142 69.4941C128.289 68.0993 125.75 66.1386 123.681 63.7317C121.541 61.2327 119.89 58.3547 118.814 55.2474C117.632 51.9542 117.029 48.482 117.032 44.9839C116.999 41.3642 117.612 37.7676 118.84 34.362C119.981 31.202 121.684 28.2738 123.867 25.7184C126.021 23.2513 128.678 21.2729 131.661 19.9161C134.779 18.4868 138.177 17.7658 141.608 17.805C145.385 17.7194 149.112 18.675 152.381 20.5667C155.449 22.3898 158.056 24.893 160.001 27.8826V18.5884H171.771V68.7904C171.832 72.3907 171.077 75.9582 169.563 79.2264C168.13 82.2504 166.051 84.9243 163.472 87.0601C160.721 89.2939 157.559 90.9675 154.163 91.986C150.364 93.154 146.407 93.7273 142.433 93.6855C137.438 93.8461 132.472 92.87 127.91 90.8309C123.982 88.9183 120.529 86.1561 117.803 82.7449L125.211 75.6813C127.252 78.189 129.852 80.1852 132.804 81.5101C135.842 82.9157 139.152 83.6364 142.499 83.6212C144.526 83.6279 146.542 83.3371 148.484 82.7582C150.339 82.2223 152.066 81.3192 153.564 80.1027C155.069 78.8564 156.258 77.2734 157.035 75.4822C157.943 73.3879 158.396 71.1253 158.365 68.8435V62.2048C156.651 65.1927 154.099 67.6155 151.024 69.1754C147.867 70.8134 144.355 71.648 140.797 71.6052ZM145.319 60.8505C146.759 60.861 148.189 60.623 149.548 60.1467C150.871 59.6889 152.124 59.0499 153.272 58.2481C154.399 57.4478 155.414 56.5012 156.291 55.4333C157.119 54.4041 157.783 53.253 158.259 52.021V39.4605C157.127 36.4888 155.154 33.91 152.58 32.0384C150.266 30.2588 147.441 29.2675 144.521 29.2103C142.559 29.1724 140.62 29.6291 138.882 30.5381C137.213 31.4398 135.743 32.668 134.56 34.1495C133.334 35.696 132.397 37.45 131.794 39.3277C131.154 41.2731 130.831 43.3082 130.836 45.3557C130.823 47.4119 131.198 49.4522 131.94 51.3704C132.646 53.1898 133.688 54.8608 135.012 56.2963C136.304 57.6916 137.859 58.8195 139.587 59.6157C141.385 60.4379 143.341 60.8593 145.319 60.8505Z" fill="black"/>
<path d="M208.383 72.3089C204.455 72.3606 200.557 71.6247 196.919 70.1446C193.67 68.82 190.725 66.8508 188.26 64.3563C185.796 61.8618 183.865 58.8939 182.583 55.6324C181.277 52.3404 180.614 48.8298 180.628 45.2893C180.604 41.6622 181.249 38.0617 182.53 34.6674C183.768 31.4142 185.65 28.4431 188.062 25.9308C190.561 23.3647 193.556 21.332 196.866 19.956C200.55 18.4387 204.505 17.6887 208.489 17.7519C212.44 17.6847 216.361 18.4352 220.006 19.956C223.252 21.3393 226.19 23.3521 228.651 25.8777C231.025 28.3612 232.867 31.3024 234.063 34.5213C235.307 37.7908 235.938 41.2608 235.925 44.7582C235.925 45.6434 235.925 46.4798 235.925 47.2676C235.904 47.9467 235.819 48.6224 235.673 49.2858H194.911C195.07 51.2031 195.579 53.0752 196.414 54.8092C197.168 56.3707 198.21 57.7761 199.486 58.9518C200.746 60.1015 202.212 61.0026 203.808 61.6073C205.414 62.2131 207.118 62.5191 208.835 62.5101C211.492 62.5156 214.105 61.8438 216.429 60.5583C218.617 59.4614 220.346 57.6272 221.31 55.3801L232.867 58.5933C230.81 62.7361 227.571 66.178 223.557 68.485C218.949 71.1313 213.697 72.4547 208.383 72.3089ZM222.094 40.5758C221.92 36.9657 220.352 33.5633 217.719 31.0825C215.785 29.3489 213.409 28.1832 210.853 27.7146C208.297 27.2459 205.661 27.4924 203.236 28.427C201.689 29.0411 200.272 29.9421 199.06 31.0825C197.822 32.2569 196.816 33.6531 196.095 35.1985C195.316 36.868 194.865 38.6707 194.765 40.5094L222.094 40.5758Z" fill="black"/>
<path d="M275.37 68.5912C273.203 69.5227 270.983 70.3252 268.72 70.9944C266.049 71.8104 263.269 72.2177 260.475 72.2027C258.678 72.2171 256.887 71.9802 255.155 71.4989C253.57 71.0641 252.096 70.2943 250.833 69.2418C249.549 68.1617 248.533 66.798 247.868 65.2586C247.073 63.3693 246.692 61.3321 246.75 59.2837V29.0245H239.808V18.6813H246.75V1.60657H260.236V18.6813H271.301V29.0245H260.236V54.7296C260.19 55.4573 260.296 56.1865 260.545 56.8718C260.795 57.5571 261.183 58.1838 261.685 58.7128C262.536 59.5758 263.933 60.8239 265.236 60.6646C268.699 60.2274 272.089 59.3345 275.317 58.0091L275.37 68.5912Z" fill="black"/>
<path d="M341.958 71.2998V24.0985L323.553 59.2439H316.012L297.606 24.0985V71.2998H283.722V0H298.604L319.722 40.5758L341.054 0H355.843V71.2998H341.958Z" fill="black"/>
<path d="M368.716 71.2998V0H382.587V59.1509H419V71.2998H368.716Z" fill="black"/>
<path d="M12.4213 32.1181H58.6355C59.7889 32.1181 60.895 32.5755 61.7106 33.3898C62.5261 34.204 62.9843 35.3083 62.9843 36.4598V82.8113C62.9816 83.4808 62.7809 84.1346 62.4075 84.6906C62.034 85.2467 61.5044 85.6802 60.8851 85.9369C60.2658 86.1936 59.5843 86.262 58.9263 86.1334C58.2682 86.0049 57.6627 85.6853 57.1859 85.2145L9.94768 38.0664C9.46289 37.5773 9.13363 36.9562 9.00121 36.281C8.86879 35.6058 8.93912 34.9065 9.20338 34.2711C9.46764 33.6356 9.91404 33.0923 10.4865 32.7092C11.059 32.3262 11.7321 32.1205 12.4213 32.1181Z" fill="url(#paint0_linear)"/>
<path d="M79.6348 1.60658H10.094C8.28462 1.56217 6.49674 2.00625 4.91909 2.89194C3.34144 3.77764 2.03252 5.0721 1.13048 6.63872C0.157161 8.4552 -0.204157 10.5364 0.100057 12.5739C0.40427 14.6115 1.35783 16.497 2.81946 17.9511L11.4771 26.5814C11.5365 26.6452 11.6086 26.6959 11.6888 26.7302C11.7689 26.7645 11.8554 26.7816 11.9426 26.7806H25.5342C25.6644 26.7788 25.7911 26.7388 25.8988 26.6658C26.0064 26.5927 26.0902 26.4897 26.1398 26.3695C26.1893 26.2494 26.2025 26.1173 26.1776 25.9898C26.1527 25.8622 26.0908 25.7448 25.9997 25.652L14.0306 13.7023C13.9375 13.6113 13.8739 13.4945 13.848 13.3671C13.822 13.2396 13.8349 13.1074 13.885 12.9873C13.9351 12.8673 14.0201 12.765 14.129 12.6936C14.2379 12.6222 14.3658 12.5851 14.496 12.587H79.6614C80.0467 12.587 80.4283 12.663 80.7841 12.8106C81.14 12.9583 81.4631 13.1746 81.735 13.4473C82.0068 13.7199 82.222 14.0435 82.3683 14.3994C82.5145 14.7553 82.5889 15.1366 82.5872 15.5213V80.5807C82.5891 80.7108 82.5519 80.8384 82.4804 80.9471C82.409 81.0559 82.3065 81.1407 82.1862 81.1907C82.066 81.2408 81.9335 81.2536 81.8058 81.2278C81.6782 81.2019 81.5612 81.1383 81.4701 81.0454L69.5009 69.0957C69.4107 68.998 69.2926 68.9301 69.1625 68.9014C69.0325 68.8727 68.8968 68.8844 68.7736 68.9351C68.6504 68.9857 68.5458 69.0728 68.4737 69.1846C68.4016 69.2964 68.3656 69.4276 68.3705 69.5605V83.1167C68.3692 83.2058 68.3862 83.2942 68.4206 83.3764C68.4549 83.4586 68.5057 83.5329 68.57 83.5947L77.2144 92.225C78.6688 93.6926 80.5611 94.6492 82.6069 94.9509C84.6526 95.2526 86.7411 94.8831 88.5585 93.898C90.1122 92.9921 91.3936 91.6861 92.2686 90.1164C93.1436 88.5468 93.58 86.7713 93.5323 84.9756V15.4948C93.5341 13.6716 93.1759 11.8659 92.4782 10.181C91.7806 8.49608 90.7572 6.96495 89.4665 5.67514C88.1758 4.38533 86.6432 3.36212 84.9562 2.66401C83.2692 1.9659 81.461 1.60658 79.6348 1.60658Z" fill="black"/>
<path d="M12.4213 32.1181H58.6355C59.7889 32.1181 60.895 32.5755 61.7106 33.3898C62.5261 34.204 62.9843 35.3083 62.9843 36.4598V82.8113C62.9816 83.4808 62.7809 84.1346 62.4075 84.6906C62.034 85.2467 61.5044 85.6802 60.8851 85.9369C60.2658 86.1936 59.5843 86.262 58.9263 86.1334C58.2682 86.0049 57.6627 85.6853 57.1859 85.2145L9.94768 38.0664C9.46289 37.5773 9.13363 36.9562 9.00121 36.281C8.86879 35.6058 8.93912 34.9065 9.20338 34.2711C9.46764 33.6356 9.91404 33.0923 10.4865 32.7092C11.059 32.3262 11.7321 32.1205 12.4213 32.1181Z" fill="url(#paint1_linear)"/>
</g>
<defs>
<linearGradient id="paint0_linear" x1="32.0906" y1="32.5695" x2="64.6081" y2="64.4617" gradientUnits="userSpaceOnUse">
<stop offset="0.07" stop-color="#95339D"/>
<stop offset="0.59" stop-color="#7A2DE8"/>
</linearGradient>
<linearGradient id="paint1_linear" x1="18.9777" y1="19.7435" x2="61.2412" y2="61.198" gradientUnits="userSpaceOnUse">
<stop offset="0.38" stop-color="#7A2DE8"/>
<stop offset="0.52" stop-color="#7C34EA"/>
<stop offset="0.73" stop-color="#8349EE"/>
<stop offset="0.99" stop-color="#8D6AF5"/>
<stop offset="1" stop-color="#8E6CF5"/>
</linearGradient>
<clipPath id="clip0">
<rect width="419" height="95" fill="white"/>
</clipPath>
</defs>
</svg>
