<svg viewBox="0 0 322 83" fill="none" xmlns="http://www.w3.org/2000/svg">
<path fill-rule="evenodd" clip-rule="evenodd" d="M39.324 37.7268V51.833H64.6943C60.6996 61.7732 51.0372 68.2536 40.3365 68.1696C26.4766 67.7039 15.4814 56.3191 15.4814 42.4337C15.4814 28.5483 26.4766 17.1635 40.3365 16.6978C49.2037 16.6637 57.4869 21.1212 62.3511 28.5447H79.3033C73.1577 12.377 57.6129 1.74633 40.3365 1.89647C18.1008 2.42141 0.448584 20.8029 0.796059 43.0704C1.14353 65.338 19.3606 83.1583 41.6019 82.9875C63.8431 82.8166 81.7849 64.7185 81.7911 42.4482C81.7861 40.8797 81.6895 39.3129 81.5018 37.7558H39.324V37.7268Z" fill="currentColor"/>
<path fill-rule="evenodd" clip-rule="evenodd" d="M91.0488 42.4483C90.6843 25.6013 100.542 10.2101 115.986 3.51387C131.429 -3.18231 149.385 0.149488 161.406 11.9422C173.428 23.7348 177.123 41.6409 170.753 57.2383C164.383 72.8357 149.217 83.0196 132.388 83C121.532 83.1236 111.072 78.9177 103.317 71.3102C95.562 63.7026 91.148 53.3185 91.0488 42.4483ZM157.903 42.4483C157.775 28.3894 146.315 17.0822 132.273 17.1618C118.232 17.2414 106.9 28.6778 106.932 42.7373C106.963 56.7967 118.346 68.1821 132.388 68.1986C139.202 68.2382 145.746 65.5313 150.545 60.6876C155.345 55.8439 157.996 49.2707 157.903 42.4483Z" fill="currentColor"/>
<path fill-rule="evenodd" clip-rule="evenodd" d="M184.633 3.19995H213.995C231.844 3.19995 240.754 10.9337 240.754 25.2427C240.936 31.5245 237.583 37.3774 232.076 40.3917C239.349 43.3112 243.989 50.5114 243.647 58.3503C243.647 73.9337 233.985 81.6675 216.136 81.6675H184.633V3.19995ZM199.936 16.9586V34.3379H214.4C223.397 34.3379 225.306 29.5586 225.306 25.2137C225.306 20.8689 222.414 16.9296 215.152 16.9296H199.936V16.9586ZM199.936 48.3572V67.9379H216.744C225.422 67.9379 228.17 62.9268 228.17 58.0317C228.17 53.1365 225.277 48.3572 216.744 48.3572H199.936Z" fill="currentColor"/>
<path fill-rule="evenodd" clip-rule="evenodd" d="M303.874 3.19995L284.492 36.1917L264.532 3.19995H246.307L276.132 50.4137L257.733 81.6675H275.322L321.347 3.19995H303.874Z" fill="currentColor"/>
</svg>
